<svg width="20" height="20" viewBox="0 0 20 20" fill="none" xmlns="http://www.w3.org/2000/svg">
<path d="M9.25 1.25C7.13624 1.27565 5.11627 2.12674 3.6215 3.6215C2.12674 5.11627 1.27565 7.13624 1.25 9.25C1.27565 11.3638 2.12674 13.3837 3.6215 14.8785C5.11627 16.3733 7.13624 17.2244 9.25 17.25C11.3638 17.2244 13.3837 16.3733 14.8785 14.8785C16.3733 13.3837 17.2244 11.3638 17.25 9.25C17.2244 7.13624 16.3733 5.11627 14.8785 3.6215C13.3837 2.12674 11.3638 1.27565 9.25 1.25ZM13.8214 9.82143H9.82143V13.8214H8.67857V9.82143H4.67857V8.67857H8.67857V4.67857H9.82143V8.67857H13.8214V9.82143Z" fill="black"/>
</svg>
