<svg width="25" height="25" viewBox="0 0 25 25" fill="none" xmlns="http://www.w3.org/2000/svg">
<g clip-path="url(#clip0_6_20)">
<path d="M20.8333 5.20834C21.1096 5.20834 21.3746 5.31808 21.5699 5.51343C21.7653 5.70878 21.875 5.97374 21.875 6.25C21.875 6.52627 21.7653 6.79122 21.5699 6.98657C21.3746 7.18192 21.1096 7.29167 20.8333 7.29167H19.7917L19.7885 7.36563L18.8167 20.9813C18.7793 21.5069 18.5441 21.9988 18.1585 22.3579C17.7728 22.717 17.2655 22.9167 16.7385 22.9167H8.26042C7.73348 22.9167 7.22611 22.717 6.84051 22.3579C6.4549 21.9988 6.2197 21.5069 6.18229 20.9813L5.21042 7.36667C5.20884 7.3417 5.20814 7.31669 5.20833 7.29167H4.16667C3.8904 7.29167 3.62545 7.18192 3.4301 6.98657C3.23475 6.79122 3.125 6.52627 3.125 6.25C3.125 5.97374 3.23475 5.70878 3.4301 5.51343C3.62545 5.31808 3.8904 5.20834 4.16667 5.20834H20.8333ZM17.7052 7.29167H7.29479L8.26146 20.8333H16.7385L17.7052 7.29167ZM14.5833 2.08334C14.8596 2.08334 15.1246 2.19308 15.3199 2.38843C15.5153 2.58378 15.625 2.84874 15.625 3.125C15.625 3.40127 15.5153 3.66622 15.3199 3.86157C15.1246 4.05692 14.8596 4.16667 14.5833 4.16667H10.4167C10.1404 4.16667 9.87545 4.05692 9.6801 3.86157C9.48475 3.66622 9.375 3.40127 9.375 3.125C9.375 2.84874 9.48475 2.58378 9.6801 2.38843C9.87545 2.19308 10.1404 2.08334 10.4167 2.08334H14.5833Z" fill="#CCCCCC"/>
</g>
<defs>
<clipPath id="clip0_6_20">
<rect width="25" height="25" fill="white"/>
</clipPath>
</defs>
</svg>
