<svg width="25" height="25" viewBox="0 0 25 25" fill="none" xmlns="http://www.w3.org/2000/svg">
<path fill-rule="evenodd" clip-rule="evenodd" d="M22.349 5.64167C22.4479 5.79188 22.492 5.97165 22.4738 6.15061C22.4556 6.32957 22.3762 6.49677 22.249 6.62396L12.6729 16.199C12.575 16.2969 12.4527 16.367 12.3188 16.4021L8.33022 17.4437C8.19838 17.4781 8.05983 17.4774 7.92834 17.4417C7.79685 17.406 7.67698 17.3366 7.58063 17.2402C7.48428 17.1439 7.41481 17.024 7.37911 16.8925C7.3434 16.761 7.34271 16.6225 7.37709 16.4906L8.41876 12.5031C8.44917 12.3834 8.50653 12.2723 8.58647 12.1781L18.1979 2.57292C18.3444 2.42661 18.543 2.34444 18.75 2.34444C18.957 2.34444 19.1556 2.42661 19.3021 2.57292L22.249 5.51875C22.2864 5.55625 22.3199 5.59744 22.349 5.64167ZM20.5917 6.07083L18.75 4.23021L9.8771 13.1031L9.22605 15.5958L11.7188 14.9448L20.5917 6.07083Z" fill="#CCCCCC"/>
<path d="M20.4594 16.875C20.7441 14.4416 20.835 11.9895 20.7313 9.54167C20.729 9.484 20.7387 9.42648 20.7596 9.37271C20.7806 9.31895 20.8124 9.27008 20.8531 9.22917L21.8781 8.20417C21.9061 8.176 21.9417 8.15652 21.9805 8.14807C22.0193 8.13962 22.0597 8.14255 22.0969 8.15652C22.1341 8.1705 22.1665 8.19491 22.1901 8.22683C22.2138 8.25875 22.2277 8.29682 22.2302 8.33646C22.4231 11.244 22.3499 14.1631 22.0115 17.0573C21.7656 19.1635 20.074 20.8146 17.9771 21.049C14.3368 21.4521 10.6632 21.4521 7.02292 21.049C4.92709 20.8146 3.23438 19.1635 2.98855 17.0573C2.55667 13.365 2.55667 9.63498 2.98855 5.94271C3.23438 3.83646 4.92605 2.18542 7.02292 1.95104C9.78581 1.64467 12.5695 1.57045 15.3448 1.72917C15.3845 1.73202 15.4226 1.74619 15.4545 1.77001C15.4864 1.79383 15.5108 1.8263 15.5249 1.86356C15.5389 1.90083 15.5419 1.94134 15.5337 1.98028C15.5254 2.01923 15.5061 2.055 15.4781 2.08333L14.4438 3.11667C14.4032 3.15703 14.3549 3.18867 14.3017 3.20963C14.2485 3.23059 14.1915 3.24043 14.1344 3.23854C11.8185 3.15982 9.49996 3.24859 7.19688 3.50417C6.5239 3.57865 5.89569 3.87784 5.41371 4.35339C4.93173 4.82894 4.62415 5.45308 4.54063 6.125C4.12297 9.69616 4.12297 13.3038 4.54063 16.875C4.62415 17.5469 4.93173 18.1711 5.41371 18.6466C5.89569 19.1222 6.5239 19.4213 7.19688 19.4958C10.6917 19.8865 14.3083 19.8865 17.8042 19.4958C18.4771 19.4213 19.1054 19.1222 19.5873 18.6466C20.0693 18.1711 20.3759 17.5469 20.4594 16.875Z" fill="#CCCCCC"/>
</svg>
